<mxfile host="app.diagrams.net" agent="Mozilla/5.0 (Macintosh; Intel Mac OS X 10_15_7) AppleWebKit/537.36 (KHTML, like Gecko) Chrome/136.0.0.0 Safari/537.36" version="27.0.5">
  <diagram name="Page-1" id="fPoC88xPCAZj_TJpCa2J">
    <mxGraphModel dx="1792" dy="1126" grid="1" gridSize="10" guides="1" tooltips="1" connect="1" arrows="1" fold="1" page="1" pageScale="1" pageWidth="827" pageHeight="1169" math="0" shadow="0">
      <root>
        <mxCell id="0" />
        <mxCell id="1" parent="0" />
        <mxCell id="poFbC_PhifQRq4bTyjj9-23" value="Web Client" style="verticalAlign=top;align=left;spacingTop=8;spacingLeft=2;spacingRight=12;shape=cube;size=10;direction=south;fontStyle=4;html=1;whiteSpace=wrap;" vertex="1" parent="1">
          <mxGeometry x="17" y="40" width="220" height="230" as="geometry" />
        </mxCell>
        <mxCell id="poFbC_PhifQRq4bTyjj9-21" value="«component»&lt;br&gt;&lt;b&gt;Frontend&amp;nbsp;&lt;/b&gt;&lt;div&gt;&lt;b&gt;(Angular)&lt;/b&gt;&lt;/div&gt;" style="html=1;dropTarget=0;whiteSpace=wrap;" vertex="1" parent="1">
          <mxGeometry x="27" y="80" width="180" height="90" as="geometry" />
        </mxCell>
        <mxCell id="poFbC_PhifQRq4bTyjj9-22" value="" style="shape=module;jettyWidth=8;jettyHeight=4;" vertex="1" parent="poFbC_PhifQRq4bTyjj9-21">
          <mxGeometry x="1" width="20" height="20" relative="1" as="geometry">
            <mxPoint x="-27" y="7" as="offset" />
          </mxGeometry>
        </mxCell>
        <mxCell id="poFbC_PhifQRq4bTyjj9-27" value="API Gateway" style="verticalAlign=top;align=left;spacingTop=8;spacingLeft=2;spacingRight=12;shape=cube;size=10;direction=south;fontStyle=4;html=1;whiteSpace=wrap;" vertex="1" parent="1">
          <mxGeometry x="309.5" y="40" width="220" height="300" as="geometry" />
        </mxCell>
        <mxCell id="poFbC_PhifQRq4bTyjj9-28" value="«component»&lt;br&gt;&lt;b&gt;API Gateway&lt;/b&gt;&lt;div&gt;&lt;b&gt;(Spring Boot)&lt;/b&gt;&lt;/div&gt;" style="html=1;dropTarget=0;whiteSpace=wrap;" vertex="1" parent="1">
          <mxGeometry x="340" y="80" width="149.5" height="220" as="geometry" />
        </mxCell>
        <mxCell id="poFbC_PhifQRq4bTyjj9-29" value="" style="shape=module;jettyWidth=8;jettyHeight=4;" vertex="1" parent="poFbC_PhifQRq4bTyjj9-28">
          <mxGeometry x="1" width="20" height="20" relative="1" as="geometry">
            <mxPoint x="-27" y="7" as="offset" />
          </mxGeometry>
        </mxCell>
        <mxCell id="poFbC_PhifQRq4bTyjj9-30" value="User Service" style="verticalAlign=top;align=left;spacingTop=8;spacingLeft=2;spacingRight=12;shape=cube;size=10;direction=south;fontStyle=4;html=1;whiteSpace=wrap;" vertex="1" parent="1">
          <mxGeometry x="598.25" y="40" width="220" height="230" as="geometry" />
        </mxCell>
        <mxCell id="poFbC_PhifQRq4bTyjj9-33" value="Concept Service" style="verticalAlign=top;align=left;spacingTop=8;spacingLeft=2;spacingRight=12;shape=cube;size=10;direction=south;fontStyle=4;html=1;whiteSpace=wrap;" vertex="1" parent="1">
          <mxGeometry x="598.25" y="300" width="220" height="230" as="geometry" />
        </mxCell>
        <mxCell id="poFbC_PhifQRq4bTyjj9-34" value="«component»&lt;br&gt;&lt;b&gt;concept-svc&amp;nbsp;&lt;/b&gt;&lt;div&gt;&lt;b&gt;(Spring Boot)&lt;/b&gt;&lt;/div&gt;" style="html=1;dropTarget=0;whiteSpace=wrap;" vertex="1" parent="1">
          <mxGeometry x="608.75" y="340" width="171.25" height="170" as="geometry" />
        </mxCell>
        <mxCell id="poFbC_PhifQRq4bTyjj9-35" value="" style="shape=module;jettyWidth=8;jettyHeight=4;" vertex="1" parent="poFbC_PhifQRq4bTyjj9-34">
          <mxGeometry x="1" width="20" height="20" relative="1" as="geometry">
            <mxPoint x="-27" y="7" as="offset" />
          </mxGeometry>
        </mxCell>
        <mxCell id="poFbC_PhifQRq4bTyjj9-36" value="GenAI Service" style="verticalAlign=top;align=left;spacingTop=8;spacingLeft=2;spacingRight=12;shape=cube;size=10;direction=south;fontStyle=4;html=1;whiteSpace=wrap;" vertex="1" parent="1">
          <mxGeometry x="598.25" y="555" width="220" height="230" as="geometry" />
        </mxCell>
        <mxCell id="poFbC_PhifQRq4bTyjj9-37" value="«component»&lt;br&gt;&lt;b&gt;genai-svc&lt;/b&gt;&lt;div&gt;&lt;b&gt;(Python + LangChain)&lt;/b&gt;&lt;/div&gt;" style="html=1;dropTarget=0;whiteSpace=wrap;" vertex="1" parent="1">
          <mxGeometry x="608.75" y="595" width="171.25" height="165" as="geometry" />
        </mxCell>
        <mxCell id="poFbC_PhifQRq4bTyjj9-38" value="" style="shape=module;jettyWidth=8;jettyHeight=4;" vertex="1" parent="poFbC_PhifQRq4bTyjj9-37">
          <mxGeometry x="1" width="20" height="20" relative="1" as="geometry">
            <mxPoint x="-27" y="7" as="offset" />
          </mxGeometry>
        </mxCell>
        <mxCell id="poFbC_PhifQRq4bTyjj9-40" value="«component»&lt;br&gt;&lt;b&gt;user-svc&amp;nbsp;&lt;/b&gt;&lt;div&gt;&lt;b&gt;(Spring Boot)&lt;/b&gt;&lt;/div&gt;" style="html=1;dropTarget=0;whiteSpace=wrap;" vertex="1" parent="1">
          <mxGeometry x="608.75" y="79" width="171.25" height="161" as="geometry" />
        </mxCell>
        <mxCell id="poFbC_PhifQRq4bTyjj9-41" value="" style="shape=module;jettyWidth=8;jettyHeight=4;" vertex="1" parent="poFbC_PhifQRq4bTyjj9-40">
          <mxGeometry x="1" width="20" height="20" relative="1" as="geometry">
            <mxPoint x="-27" y="7" as="offset" />
          </mxGeometry>
        </mxCell>
        <mxCell id="poFbC_PhifQRq4bTyjj9-53" value="" style="ellipse;whiteSpace=wrap;html=1;align=center;aspect=fixed;fillColor=none;strokeColor=none;resizable=0;perimeter=centerPerimeter;rotatable=0;allowArrows=0;points=[];outlineConnect=1;" vertex="1" parent="1">
          <mxGeometry x="279.5" y="150" width="10" height="10" as="geometry" />
        </mxCell>
        <mxCell id="poFbC_PhifQRq4bTyjj9-57" value="" style="html=1;rounded=0;direction=north;flipV=0;flipH=1;" vertex="1" parent="1">
          <mxGeometry x="323.5" y="109" width="30" height="30" as="geometry" />
        </mxCell>
        <mxCell id="poFbC_PhifQRq4bTyjj9-61" value="" style="ellipse;whiteSpace=wrap;html=1;align=center;aspect=fixed;fillColor=none;strokeColor=none;resizable=0;perimeter=centerPerimeter;rotatable=0;allowArrows=0;points=[];outlineConnect=1;" vertex="1" parent="1">
          <mxGeometry x="678.25" y="575" width="10" height="10" as="geometry" />
        </mxCell>
        <mxCell id="poFbC_PhifQRq4bTyjj9-62" value="REST API" style="text;html=1;align=center;verticalAlign=middle;whiteSpace=wrap;rounded=0;fontSize=10;" vertex="1" parent="1">
          <mxGeometry x="241.5" y="130" width="60" height="30" as="geometry" />
        </mxCell>
        <mxCell id="poFbC_PhifQRq4bTyjj9-65" value="" style="html=1;rounded=0;" vertex="1" parent="1">
          <mxGeometry x="479.5" y="119" width="30" height="30" as="geometry" />
        </mxCell>
        <mxCell id="poFbC_PhifQRq4bTyjj9-69" value="" style="html=1;rounded=0;" vertex="1" parent="1">
          <mxGeometry x="479.5" y="160" width="30" height="30" as="geometry" />
        </mxCell>
        <mxCell id="poFbC_PhifQRq4bTyjj9-72" value="" style="html=1;rounded=0;" vertex="1" parent="1">
          <mxGeometry x="479.5" y="200" width="30" height="30" as="geometry" />
        </mxCell>
        <mxCell id="poFbC_PhifQRq4bTyjj9-78" value="" style="ellipse;whiteSpace=wrap;html=1;align=center;aspect=fixed;fillColor=none;strokeColor=none;resizable=0;perimeter=centerPerimeter;rotatable=0;allowArrows=0;points=[];outlineConnect=1;" vertex="1" parent="1">
          <mxGeometry x="266.5" y="120" width="10" height="10" as="geometry" />
        </mxCell>
        <mxCell id="poFbC_PhifQRq4bTyjj9-83" value="" style="html=1;rounded=0;" vertex="1" parent="1">
          <mxGeometry x="589.5" y="640" width="30" height="30" as="geometry" />
        </mxCell>
        <mxCell id="poFbC_PhifQRq4bTyjj9-91" value="" style="rounded=0;orthogonalLoop=1;jettySize=auto;html=1;endArrow=halfCircle;endFill=0;endSize=6;strokeWidth=1;sketch=0;edgeStyle=orthogonalEdgeStyle;exitX=1;exitY=0.5;exitDx=0;exitDy=0;" edge="1" target="poFbC_PhifQRq4bTyjj9-93" parent="1" source="poFbC_PhifQRq4bTyjj9-72">
          <mxGeometry relative="1" as="geometry">
            <mxPoint x="570" y="395" as="sourcePoint" />
          </mxGeometry>
        </mxCell>
        <mxCell id="poFbC_PhifQRq4bTyjj9-92" value="" style="rounded=0;orthogonalLoop=1;jettySize=auto;html=1;endArrow=oval;endFill=0;sketch=0;sourcePerimeterSpacing=0;targetPerimeterSpacing=0;endSize=10;exitX=0;exitY=0.5;exitDx=0;exitDy=0;edgeStyle=orthogonalEdgeStyle;" edge="1" target="poFbC_PhifQRq4bTyjj9-93" parent="1" source="poFbC_PhifQRq4bTyjj9-83">
          <mxGeometry relative="1" as="geometry">
            <mxPoint x="530" y="395" as="sourcePoint" />
            <Array as="points">
              <mxPoint x="550" y="655" />
            </Array>
          </mxGeometry>
        </mxCell>
        <mxCell id="poFbC_PhifQRq4bTyjj9-93" value="" style="ellipse;whiteSpace=wrap;html=1;align=center;aspect=fixed;fillColor=none;strokeColor=none;resizable=0;perimeter=centerPerimeter;rotatable=0;allowArrows=0;points=[];outlineConnect=1;" vertex="1" parent="1">
          <mxGeometry x="545" y="440" width="10" height="10" as="geometry" />
        </mxCell>
        <mxCell id="poFbC_PhifQRq4bTyjj9-94" value="" style="html=1;rounded=0;" vertex="1" parent="1">
          <mxGeometry x="588.75" y="120" width="30" height="30" as="geometry" />
        </mxCell>
        <mxCell id="poFbC_PhifQRq4bTyjj9-95" value="" style="rounded=0;orthogonalLoop=1;jettySize=auto;html=1;endArrow=halfCircle;endFill=0;endSize=6;strokeWidth=1;sketch=0;exitX=1;exitY=0.5;exitDx=0;exitDy=0;" edge="1" target="poFbC_PhifQRq4bTyjj9-97" parent="1" source="poFbC_PhifQRq4bTyjj9-65">
          <mxGeometry relative="1" as="geometry">
            <mxPoint x="570" y="135" as="sourcePoint" />
          </mxGeometry>
        </mxCell>
        <mxCell id="poFbC_PhifQRq4bTyjj9-96" value="" style="rounded=0;orthogonalLoop=1;jettySize=auto;html=1;endArrow=oval;endFill=0;sketch=0;sourcePerimeterSpacing=0;targetPerimeterSpacing=0;endSize=10;exitX=0;exitY=0.5;exitDx=0;exitDy=0;" edge="1" target="poFbC_PhifQRq4bTyjj9-97" parent="1" source="poFbC_PhifQRq4bTyjj9-94">
          <mxGeometry relative="1" as="geometry">
            <mxPoint x="530" y="135" as="sourcePoint" />
          </mxGeometry>
        </mxCell>
        <mxCell id="poFbC_PhifQRq4bTyjj9-97" value="" style="ellipse;whiteSpace=wrap;html=1;align=center;aspect=fixed;fillColor=none;strokeColor=none;resizable=0;perimeter=centerPerimeter;rotatable=0;allowArrows=0;points=[];outlineConnect=1;" vertex="1" parent="1">
          <mxGeometry x="555" y="130" width="10" height="10" as="geometry" />
        </mxCell>
        <mxCell id="poFbC_PhifQRq4bTyjj9-98" value="REST API" style="text;html=1;align=center;verticalAlign=middle;whiteSpace=wrap;rounded=0;fontSize=10;" vertex="1" parent="1">
          <mxGeometry x="529.5" y="140" width="60" height="30" as="geometry" />
        </mxCell>
        <mxCell id="poFbC_PhifQRq4bTyjj9-102" value="" style="html=1;rounded=0;" vertex="1" parent="1">
          <mxGeometry x="589.5" y="380" width="30" height="30" as="geometry" />
        </mxCell>
        <mxCell id="poFbC_PhifQRq4bTyjj9-106" value="" style="rounded=0;orthogonalLoop=1;jettySize=auto;html=1;endArrow=halfCircle;endFill=0;endSize=6;strokeWidth=1;sketch=0;edgeStyle=orthogonalEdgeStyle;exitX=1;exitY=0.5;exitDx=0;exitDy=0;" edge="1" target="poFbC_PhifQRq4bTyjj9-108" parent="1" source="poFbC_PhifQRq4bTyjj9-69">
          <mxGeometry relative="1" as="geometry">
            <mxPoint x="570" y="177.33333333333334" as="sourcePoint" />
          </mxGeometry>
        </mxCell>
        <mxCell id="poFbC_PhifQRq4bTyjj9-107" value="" style="rounded=0;orthogonalLoop=1;jettySize=auto;html=1;endArrow=oval;endFill=0;sketch=0;sourcePerimeterSpacing=0;targetPerimeterSpacing=0;endSize=10;exitX=0;exitY=0.5;exitDx=0;exitDy=0;edgeStyle=orthogonalEdgeStyle;" edge="1" target="poFbC_PhifQRq4bTyjj9-108" parent="1" source="poFbC_PhifQRq4bTyjj9-102">
          <mxGeometry relative="1" as="geometry">
            <mxPoint x="549" y="366" as="sourcePoint" />
          </mxGeometry>
        </mxCell>
        <mxCell id="poFbC_PhifQRq4bTyjj9-108" value="" style="ellipse;whiteSpace=wrap;html=1;align=center;aspect=fixed;fillColor=none;strokeColor=none;resizable=0;perimeter=centerPerimeter;rotatable=0;allowArrows=0;points=[];outlineConnect=1;" vertex="1" parent="1">
          <mxGeometry x="564" y="361" width="10" height="10" as="geometry" />
        </mxCell>
        <mxCell id="poFbC_PhifQRq4bTyjj9-110" value="REST API" style="text;html=1;align=center;verticalAlign=middle;whiteSpace=wrap;rounded=0;fontSize=10;" vertex="1" parent="1">
          <mxGeometry x="488" y="350" width="60" height="30" as="geometry" />
        </mxCell>
        <mxCell id="poFbC_PhifQRq4bTyjj9-111" value="REST API" style="text;html=1;align=center;verticalAlign=middle;whiteSpace=wrap;rounded=0;fontSize=10;" vertex="1" parent="1">
          <mxGeometry x="479.5" y="430" width="60" height="30" as="geometry" />
        </mxCell>
        <mxCell id="poFbC_PhifQRq4bTyjj9-117" value="" style="group" vertex="1" connectable="0" parent="1">
          <mxGeometry x="900" y="55" width="170" height="180" as="geometry" />
        </mxCell>
        <mxCell id="poFbC_PhifQRq4bTyjj9-109" value="" style="shape=cylinder3;whiteSpace=wrap;html=1;boundedLbl=1;backgroundOutline=1;size=15;" vertex="1" parent="poFbC_PhifQRq4bTyjj9-117">
          <mxGeometry width="170" height="180" as="geometry" />
        </mxCell>
        <mxCell id="poFbC_PhifQRq4bTyjj9-115" value="&lt;b&gt;PostgreSQL&lt;/b&gt;&lt;div&gt;&lt;b&gt;(User + Meta)&lt;/b&gt;&lt;/div&gt;" style="text;html=1;align=center;verticalAlign=middle;whiteSpace=wrap;rounded=0;" vertex="1" parent="poFbC_PhifQRq4bTyjj9-117">
          <mxGeometry x="45" y="75" width="80" height="30" as="geometry" />
        </mxCell>
        <mxCell id="poFbC_PhifQRq4bTyjj9-137" value="" style="html=1;rounded=0;" vertex="1" parent="poFbC_PhifQRq4bTyjj9-117">
          <mxGeometry x="-20" y="65" width="30" height="30" as="geometry" />
        </mxCell>
        <mxCell id="poFbC_PhifQRq4bTyjj9-118" value="" style="group" vertex="1" connectable="0" parent="1">
          <mxGeometry x="900" y="325" width="190" height="180" as="geometry" />
        </mxCell>
        <mxCell id="poFbC_PhifQRq4bTyjj9-119" value="" style="shape=cylinder3;whiteSpace=wrap;html=1;boundedLbl=1;backgroundOutline=1;size=15;" vertex="1" parent="poFbC_PhifQRq4bTyjj9-118">
          <mxGeometry width="170" height="180" as="geometry" />
        </mxCell>
        <mxCell id="poFbC_PhifQRq4bTyjj9-120" value="&lt;b&gt;MiniIO - Object Storage&lt;/b&gt;&lt;div&gt;&lt;b&gt;(Docs + PDF)&lt;/b&gt;&lt;/div&gt;" style="text;html=1;align=center;verticalAlign=middle;whiteSpace=wrap;rounded=0;" vertex="1" parent="poFbC_PhifQRq4bTyjj9-118">
          <mxGeometry x="12.5" y="75" width="145" height="30" as="geometry" />
        </mxCell>
        <mxCell id="poFbC_PhifQRq4bTyjj9-136" value="" style="html=1;rounded=0;" vertex="1" parent="poFbC_PhifQRq4bTyjj9-118">
          <mxGeometry x="-17.5" y="55" width="30" height="30" as="geometry" />
        </mxCell>
        <mxCell id="poFbC_PhifQRq4bTyjj9-121" value="" style="group" vertex="1" connectable="0" parent="1">
          <mxGeometry x="900" y="585" width="170" height="180" as="geometry" />
        </mxCell>
        <mxCell id="poFbC_PhifQRq4bTyjj9-122" value="" style="shape=cylinder3;whiteSpace=wrap;html=1;boundedLbl=1;backgroundOutline=1;size=15;" vertex="1" parent="poFbC_PhifQRq4bTyjj9-121">
          <mxGeometry width="170" height="180" as="geometry" />
        </mxCell>
        <mxCell id="poFbC_PhifQRq4bTyjj9-123" value="&lt;b&gt;Weaviate&lt;/b&gt;&lt;div&gt;&lt;b&gt;(Embeddings)&lt;/b&gt;&lt;/div&gt;" style="text;html=1;align=center;verticalAlign=middle;whiteSpace=wrap;rounded=0;" vertex="1" parent="poFbC_PhifQRq4bTyjj9-121">
          <mxGeometry x="45" y="75" width="80" height="30" as="geometry" />
        </mxCell>
        <mxCell id="poFbC_PhifQRq4bTyjj9-124" value="" style="html=1;rounded=0;" vertex="1" parent="1">
          <mxGeometry x="770" y="120" width="30" height="30" as="geometry" />
        </mxCell>
        <mxCell id="poFbC_PhifQRq4bTyjj9-125" value="" style="html=1;rounded=0;" vertex="1" parent="1">
          <mxGeometry x="770" y="380" width="30" height="30" as="geometry" />
        </mxCell>
        <mxCell id="poFbC_PhifQRq4bTyjj9-126" value="" style="html=1;rounded=0;" vertex="1" parent="1">
          <mxGeometry x="770" y="640" width="30" height="30" as="geometry" />
        </mxCell>
        <mxCell id="poFbC_PhifQRq4bTyjj9-130" value="" style="rounded=0;orthogonalLoop=1;jettySize=auto;html=1;endArrow=halfCircle;endFill=0;endSize=6;strokeWidth=1;sketch=0;exitX=1;exitY=0.5;exitDx=0;exitDy=0;" edge="1" target="poFbC_PhifQRq4bTyjj9-132" parent="1" source="poFbC_PhifQRq4bTyjj9-126">
          <mxGeometry relative="1" as="geometry">
            <mxPoint x="880" y="655" as="sourcePoint" />
          </mxGeometry>
        </mxCell>
        <mxCell id="poFbC_PhifQRq4bTyjj9-131" value="" style="rounded=0;orthogonalLoop=1;jettySize=auto;html=1;endArrow=oval;endFill=0;sketch=0;sourcePerimeterSpacing=0;targetPerimeterSpacing=0;endSize=10;exitX=0;exitY=0.5;exitDx=0;exitDy=0;" edge="1" target="poFbC_PhifQRq4bTyjj9-132" parent="1" source="poFbC_PhifQRq4bTyjj9-138">
          <mxGeometry relative="1" as="geometry">
            <mxPoint x="860" y="620" as="sourcePoint" />
          </mxGeometry>
        </mxCell>
        <mxCell id="poFbC_PhifQRq4bTyjj9-132" value="" style="ellipse;whiteSpace=wrap;html=1;align=center;aspect=fixed;fillColor=none;strokeColor=none;resizable=0;perimeter=centerPerimeter;rotatable=0;allowArrows=0;points=[];outlineConnect=1;" vertex="1" parent="1">
          <mxGeometry x="855" y="650" width="10" height="10" as="geometry" />
        </mxCell>
        <mxCell id="poFbC_PhifQRq4bTyjj9-133" value="" style="rounded=0;orthogonalLoop=1;jettySize=auto;html=1;endArrow=halfCircle;endFill=0;endSize=6;strokeWidth=1;sketch=0;exitX=1;exitY=0.5;exitDx=0;exitDy=0;" edge="1" target="poFbC_PhifQRq4bTyjj9-135" parent="1" source="poFbC_PhifQRq4bTyjj9-125">
          <mxGeometry relative="1" as="geometry">
            <mxPoint x="880" y="395" as="sourcePoint" />
          </mxGeometry>
        </mxCell>
        <mxCell id="poFbC_PhifQRq4bTyjj9-134" value="" style="rounded=0;orthogonalLoop=1;jettySize=auto;html=1;endArrow=oval;endFill=0;sketch=0;sourcePerimeterSpacing=0;targetPerimeterSpacing=0;endSize=10;exitX=0;exitY=0.5;exitDx=0;exitDy=0;" edge="1" target="poFbC_PhifQRq4bTyjj9-135" parent="1" source="poFbC_PhifQRq4bTyjj9-136">
          <mxGeometry relative="1" as="geometry">
            <mxPoint x="840" y="395" as="sourcePoint" />
            <Array as="points" />
          </mxGeometry>
        </mxCell>
        <mxCell id="poFbC_PhifQRq4bTyjj9-135" value="" style="ellipse;whiteSpace=wrap;html=1;align=center;aspect=fixed;fillColor=none;strokeColor=none;resizable=0;perimeter=centerPerimeter;rotatable=0;allowArrows=0;points=[];outlineConnect=1;" vertex="1" parent="1">
          <mxGeometry x="850" y="390" width="10" height="10" as="geometry" />
        </mxCell>
        <mxCell id="poFbC_PhifQRq4bTyjj9-138" value="" style="html=1;rounded=0;" vertex="1" parent="1">
          <mxGeometry x="890" y="640" width="30" height="30" as="geometry" />
        </mxCell>
        <mxCell id="poFbC_PhifQRq4bTyjj9-139" value="" style="rounded=0;orthogonalLoop=1;jettySize=auto;html=1;endArrow=halfCircle;endFill=0;endSize=6;strokeWidth=1;sketch=0;exitX=1;exitY=0.5;exitDx=0;exitDy=0;" edge="1" target="poFbC_PhifQRq4bTyjj9-141" parent="1" source="poFbC_PhifQRq4bTyjj9-124">
          <mxGeometry relative="1" as="geometry">
            <mxPoint x="865" y="135" as="sourcePoint" />
          </mxGeometry>
        </mxCell>
        <mxCell id="poFbC_PhifQRq4bTyjj9-140" value="" style="rounded=0;orthogonalLoop=1;jettySize=auto;html=1;endArrow=oval;endFill=0;sketch=0;sourcePerimeterSpacing=0;targetPerimeterSpacing=0;endSize=10;exitX=0;exitY=0.5;exitDx=0;exitDy=0;" edge="1" target="poFbC_PhifQRq4bTyjj9-141" parent="1" source="poFbC_PhifQRq4bTyjj9-137">
          <mxGeometry relative="1" as="geometry">
            <mxPoint x="825" y="135" as="sourcePoint" />
          </mxGeometry>
        </mxCell>
        <mxCell id="poFbC_PhifQRq4bTyjj9-141" value="" style="ellipse;whiteSpace=wrap;html=1;align=center;aspect=fixed;fillColor=none;strokeColor=none;resizable=0;perimeter=centerPerimeter;rotatable=0;allowArrows=0;points=[];outlineConnect=1;" vertex="1" parent="1">
          <mxGeometry x="845" y="130" width="10" height="10" as="geometry" />
        </mxCell>
        <mxCell id="poFbC_PhifQRq4bTyjj9-142" value="API / SQL" style="text;html=1;align=center;verticalAlign=middle;whiteSpace=wrap;rounded=0;fontSize=10;" vertex="1" parent="1">
          <mxGeometry x="825" y="150" width="60" height="30" as="geometry" />
        </mxCell>
        <mxCell id="poFbC_PhifQRq4bTyjj9-143" value="API" style="text;html=1;align=center;verticalAlign=middle;whiteSpace=wrap;rounded=0;fontSize=10;" vertex="1" parent="1">
          <mxGeometry x="825" y="410" width="60" height="30" as="geometry" />
        </mxCell>
        <mxCell id="poFbC_PhifQRq4bTyjj9-144" value="API" style="text;html=1;align=center;verticalAlign=middle;whiteSpace=wrap;rounded=0;fontSize=10;" vertex="1" parent="1">
          <mxGeometry x="830" y="670" width="60" height="30" as="geometry" />
        </mxCell>
        <mxCell id="poFbC_PhifQRq4bTyjj9-145" value="Observability" style="verticalAlign=top;align=left;spacingTop=8;spacingLeft=2;spacingRight=12;shape=cube;size=10;direction=south;fontStyle=4;html=1;whiteSpace=wrap;" vertex="1" parent="1">
          <mxGeometry x="598.25" y="820" width="521.75" height="300" as="geometry" />
        </mxCell>
        <mxCell id="poFbC_PhifQRq4bTyjj9-197" style="edgeStyle=orthogonalEdgeStyle;rounded=0;orthogonalLoop=1;jettySize=auto;html=1;exitX=1;exitY=0.75;exitDx=0;exitDy=0;" edge="1" parent="1" source="poFbC_PhifQRq4bTyjj9-146" target="poFbC_PhifQRq4bTyjj9-194">
          <mxGeometry relative="1" as="geometry" />
        </mxCell>
        <mxCell id="poFbC_PhifQRq4bTyjj9-146" value="«component»&lt;br&gt;&lt;div&gt;&lt;b&gt;Prometheus&lt;/b&gt;&lt;/div&gt;&lt;div&gt;&lt;br&gt;&lt;/div&gt;" style="html=1;dropTarget=0;whiteSpace=wrap;" vertex="1" parent="1">
          <mxGeometry x="608.25" y="860" width="171.25" height="140" as="geometry" />
        </mxCell>
        <mxCell id="poFbC_PhifQRq4bTyjj9-147" value="" style="shape=module;jettyWidth=8;jettyHeight=4;" vertex="1" parent="poFbC_PhifQRq4bTyjj9-146">
          <mxGeometry x="1" width="20" height="20" relative="1" as="geometry">
            <mxPoint x="-27" y="7" as="offset" />
          </mxGeometry>
        </mxCell>
        <mxCell id="poFbC_PhifQRq4bTyjj9-148" value="" style="shape=cylinder3;whiteSpace=wrap;html=1;boundedLbl=1;backgroundOutline=1;size=15;" vertex="1" parent="1">
          <mxGeometry x="900" y="881.75" width="170" height="96.5" as="geometry" />
        </mxCell>
        <mxCell id="poFbC_PhifQRq4bTyjj9-157" value="Local Storage" style="text;html=1;align=center;verticalAlign=middle;whiteSpace=wrap;rounded=0;fontStyle=1" vertex="1" parent="1">
          <mxGeometry x="943" y="924" width="84" height="30" as="geometry" />
        </mxCell>
        <mxCell id="poFbC_PhifQRq4bTyjj9-160" value="Web Client" style="verticalAlign=top;align=left;spacingTop=8;spacingLeft=2;spacingRight=12;shape=cube;size=10;direction=south;fontStyle=4;html=1;whiteSpace=wrap;" vertex="1" parent="1">
          <mxGeometry x="27" y="820" width="220" height="190" as="geometry" />
        </mxCell>
        <mxCell id="poFbC_PhifQRq4bTyjj9-161" value="«component»&lt;br&gt;&lt;b&gt;Dashboard&amp;nbsp;&lt;/b&gt;&lt;div&gt;&lt;b&gt;(Grafana)&lt;/b&gt;&lt;/div&gt;" style="html=1;dropTarget=0;whiteSpace=wrap;" vertex="1" parent="1">
          <mxGeometry x="37" y="860" width="180" height="90" as="geometry" />
        </mxCell>
        <mxCell id="poFbC_PhifQRq4bTyjj9-162" value="" style="shape=module;jettyWidth=8;jettyHeight=4;" vertex="1" parent="poFbC_PhifQRq4bTyjj9-161">
          <mxGeometry x="1" width="20" height="20" relative="1" as="geometry">
            <mxPoint x="-27" y="7" as="offset" />
          </mxGeometry>
        </mxCell>
        <mxCell id="poFbC_PhifQRq4bTyjj9-163" value="" style="ellipse;whiteSpace=wrap;html=1;align=center;aspect=fixed;fillColor=none;strokeColor=none;resizable=0;perimeter=centerPerimeter;rotatable=0;allowArrows=0;points=[];outlineConnect=1;" vertex="1" parent="1">
          <mxGeometry x="289.5" y="930" width="10" height="10" as="geometry" />
        </mxCell>
        <mxCell id="poFbC_PhifQRq4bTyjj9-166" value="" style="line;strokeWidth=1;fillColor=none;align=left;verticalAlign=middle;spacingTop=-1;spacingLeft=3;spacingRight=3;rotatable=0;labelPosition=right;points=[];portConstraint=eastwest;strokeColor=inherit;" vertex="1" parent="1">
          <mxGeometry x="20" y="800" width="1130" height="8" as="geometry" />
        </mxCell>
        <mxCell id="poFbC_PhifQRq4bTyjj9-169" value="Presentation Layer" style="text;html=1;align=center;verticalAlign=middle;whiteSpace=wrap;rounded=0;fontStyle=5;fontSize=14;" vertex="1" parent="1">
          <mxGeometry x="57.25" width="139.5" height="30" as="geometry" />
        </mxCell>
        <mxCell id="poFbC_PhifQRq4bTyjj9-171" value="API/Backend Layer" style="text;html=1;align=center;verticalAlign=middle;whiteSpace=wrap;rounded=0;fontStyle=5;fontSize=14;" vertex="1" parent="1">
          <mxGeometry x="349.75" width="139.5" height="30" as="geometry" />
        </mxCell>
        <mxCell id="poFbC_PhifQRq4bTyjj9-172" value="Service Layer" style="text;html=1;align=center;verticalAlign=middle;whiteSpace=wrap;rounded=0;fontStyle=5;fontSize=14;" vertex="1" parent="1">
          <mxGeometry x="640" width="139.5" height="30" as="geometry" />
        </mxCell>
        <mxCell id="poFbC_PhifQRq4bTyjj9-173" value="Data Layer" style="text;html=1;align=center;verticalAlign=middle;whiteSpace=wrap;rounded=0;fontStyle=5;fontSize=14;" vertex="1" parent="1">
          <mxGeometry x="915.25" width="139.5" height="30" as="geometry" />
        </mxCell>
        <mxCell id="poFbC_PhifQRq4bTyjj9-174" style="edgeStyle=orthogonalEdgeStyle;rounded=0;orthogonalLoop=1;jettySize=auto;html=1;exitX=1;exitY=0.5;exitDx=0;exitDy=0;entryX=0;entryY=0.5;entryDx=0;entryDy=0;entryPerimeter=0;" edge="1" parent="1" source="poFbC_PhifQRq4bTyjj9-146" target="poFbC_PhifQRq4bTyjj9-148">
          <mxGeometry relative="1" as="geometry" />
        </mxCell>
        <mxCell id="poFbC_PhifQRq4bTyjj9-178" value="" style="html=1;rounded=0;direction=north;flipV=0;flipH=1;" vertex="1" parent="1">
          <mxGeometry x="589.5" y="894" width="30" height="30" as="geometry" />
        </mxCell>
        <mxCell id="poFbC_PhifQRq4bTyjj9-179" value="" style="rounded=0;orthogonalLoop=1;jettySize=auto;html=1;endArrow=halfCircle;endFill=0;endSize=6;strokeWidth=1;sketch=0;exitX=1;exitY=0.5;exitDx=0;exitDy=0;" edge="1" target="poFbC_PhifQRq4bTyjj9-181" parent="1" source="poFbC_PhifQRq4bTyjj9-21">
          <mxGeometry relative="1" as="geometry">
            <mxPoint x="292" y="124" as="sourcePoint" />
          </mxGeometry>
        </mxCell>
        <mxCell id="poFbC_PhifQRq4bTyjj9-180" value="" style="rounded=0;orthogonalLoop=1;jettySize=auto;html=1;endArrow=oval;endFill=0;sketch=0;sourcePerimeterSpacing=0;targetPerimeterSpacing=0;endSize=10;exitX=0.5;exitY=0;exitDx=0;exitDy=0;" edge="1" target="poFbC_PhifQRq4bTyjj9-181" parent="1" source="poFbC_PhifQRq4bTyjj9-57">
          <mxGeometry relative="1" as="geometry">
            <mxPoint x="252" y="124" as="sourcePoint" />
          </mxGeometry>
        </mxCell>
        <mxCell id="poFbC_PhifQRq4bTyjj9-181" value="" style="ellipse;whiteSpace=wrap;html=1;align=center;aspect=fixed;fillColor=none;strokeColor=none;resizable=0;perimeter=centerPerimeter;rotatable=0;allowArrows=0;points=[];outlineConnect=1;" vertex="1" parent="1">
          <mxGeometry x="267" y="119" width="10" height="10" as="geometry" />
        </mxCell>
        <mxCell id="poFbC_PhifQRq4bTyjj9-182" value="" style="rounded=0;orthogonalLoop=1;jettySize=auto;html=1;endArrow=halfCircle;endFill=0;endSize=6;strokeWidth=1;sketch=0;exitX=0.995;exitY=0.562;exitDx=0;exitDy=0;exitPerimeter=0;" edge="1" target="poFbC_PhifQRq4bTyjj9-184" parent="1" source="poFbC_PhifQRq4bTyjj9-161">
          <mxGeometry relative="1" as="geometry">
            <mxPoint x="420" y="909" as="sourcePoint" />
          </mxGeometry>
        </mxCell>
        <mxCell id="poFbC_PhifQRq4bTyjj9-183" value="" style="rounded=0;orthogonalLoop=1;jettySize=auto;html=1;endArrow=oval;endFill=0;sketch=0;sourcePerimeterSpacing=0;targetPerimeterSpacing=0;endSize=10;exitX=0.5;exitY=0;exitDx=0;exitDy=0;" edge="1" target="poFbC_PhifQRq4bTyjj9-184" parent="1" source="poFbC_PhifQRq4bTyjj9-178">
          <mxGeometry relative="1" as="geometry">
            <mxPoint x="380" y="909" as="sourcePoint" />
          </mxGeometry>
        </mxCell>
        <mxCell id="poFbC_PhifQRq4bTyjj9-184" value="" style="ellipse;whiteSpace=wrap;html=1;align=center;aspect=fixed;fillColor=none;strokeColor=none;resizable=0;perimeter=centerPerimeter;rotatable=0;allowArrows=0;points=[];outlineConnect=1;" vertex="1" parent="1">
          <mxGeometry x="395" y="904" width="10" height="10" as="geometry" />
        </mxCell>
        <mxCell id="poFbC_PhifQRq4bTyjj9-185" value="REST API / PromQL" style="text;html=1;align=center;verticalAlign=middle;whiteSpace=wrap;rounded=0;fontSize=10;" vertex="1" parent="1">
          <mxGeometry x="370" y="924" width="60" height="30" as="geometry" />
        </mxCell>
        <mxCell id="poFbC_PhifQRq4bTyjj9-186" value="" style="html=1;rounded=0;direction=north;flipV=0;flipH=1;" vertex="1" parent="1">
          <mxGeometry x="588.75" y="948.25" width="30" height="30" as="geometry" />
        </mxCell>
        <mxCell id="poFbC_PhifQRq4bTyjj9-187" value="" style="html=1;rounded=0;direction=north;flipV=0;flipH=1;" vertex="1" parent="1">
          <mxGeometry x="399" y="290" width="30" height="30" as="geometry" />
        </mxCell>
        <mxCell id="poFbC_PhifQRq4bTyjj9-189" value="" style="rounded=0;orthogonalLoop=1;jettySize=auto;html=1;endArrow=halfCircle;endFill=0;endSize=6;strokeWidth=1;sketch=0;exitX=0.5;exitY=0;exitDx=0;exitDy=0;edgeStyle=elbowEdgeStyle;" edge="1" target="poFbC_PhifQRq4bTyjj9-191" parent="1" source="poFbC_PhifQRq4bTyjj9-186">
          <mxGeometry relative="1" as="geometry">
            <mxPoint x="440" y="615" as="sourcePoint" />
          </mxGeometry>
        </mxCell>
        <mxCell id="poFbC_PhifQRq4bTyjj9-190" value="" style="rounded=0;orthogonalLoop=1;jettySize=auto;html=1;endArrow=oval;endFill=0;sketch=0;sourcePerimeterSpacing=0;targetPerimeterSpacing=0;endSize=10;exitX=0;exitY=0.5;exitDx=0;exitDy=0;" edge="1" target="poFbC_PhifQRq4bTyjj9-191" parent="1" source="poFbC_PhifQRq4bTyjj9-187">
          <mxGeometry relative="1" as="geometry">
            <mxPoint x="400" y="615" as="sourcePoint" />
          </mxGeometry>
        </mxCell>
        <mxCell id="poFbC_PhifQRq4bTyjj9-191" value="" style="ellipse;whiteSpace=wrap;html=1;align=center;aspect=fixed;fillColor=none;strokeColor=none;resizable=0;perimeter=centerPerimeter;rotatable=0;allowArrows=0;points=[];outlineConnect=1;" vertex="1" parent="1">
          <mxGeometry x="409.75" y="600" width="10" height="10" as="geometry" />
        </mxCell>
        <mxCell id="poFbC_PhifQRq4bTyjj9-192" value="REST API" style="text;html=1;align=center;verticalAlign=middle;whiteSpace=wrap;rounded=0;fontSize=10;" vertex="1" parent="1">
          <mxGeometry x="384" y="620" width="60" height="30" as="geometry" />
        </mxCell>
        <mxCell id="poFbC_PhifQRq4bTyjj9-196" style="edgeStyle=orthogonalEdgeStyle;rounded=0;orthogonalLoop=1;jettySize=auto;html=1;exitX=0.5;exitY=0;exitDx=0;exitDy=0;entryX=0.5;entryY=1;entryDx=0;entryDy=0;" edge="1" parent="1" source="poFbC_PhifQRq4bTyjj9-193" target="poFbC_PhifQRq4bTyjj9-146">
          <mxGeometry relative="1" as="geometry" />
        </mxCell>
        <mxCell id="poFbC_PhifQRq4bTyjj9-193" value="Service Discovery" style="html=1;whiteSpace=wrap;dashed=1;" vertex="1" parent="1">
          <mxGeometry x="639.38" y="1050" width="110" height="50" as="geometry" />
        </mxCell>
        <mxCell id="poFbC_PhifQRq4bTyjj9-194" value="Alert via E-Mail" style="html=1;whiteSpace=wrap;dashed=1;" vertex="1" parent="1">
          <mxGeometry x="779.5" y="1050" width="110" height="50" as="geometry" />
        </mxCell>
        <mxCell id="poFbC_PhifQRq4bTyjj9-203" value="" style="ellipse;whiteSpace=wrap;html=1;align=center;aspect=fixed;fillColor=none;strokeColor=none;resizable=0;perimeter=centerPerimeter;rotatable=0;allowArrows=0;points=[];outlineConnect=1;" vertex="1" parent="1">
          <mxGeometry x="720" y="440" width="10" height="10" as="geometry" />
        </mxCell>
        <mxCell id="poFbC_PhifQRq4bTyjj9-204" style="edgeStyle=orthogonalEdgeStyle;rounded=0;orthogonalLoop=1;jettySize=auto;html=1;exitX=1;exitY=0.5;exitDx=0;exitDy=0;entryX=0.408;entryY=1.075;entryDx=0;entryDy=0;entryPerimeter=0;endArrow=halfCircle;endFill=0;" edge="1" parent="1" source="poFbC_PhifQRq4bTyjj9-125" target="poFbC_PhifQRq4bTyjj9-141">
          <mxGeometry relative="1" as="geometry">
            <Array as="points">
              <mxPoint x="830" y="395" />
              <mxPoint x="830" y="240" />
              <mxPoint x="850" y="240" />
            </Array>
          </mxGeometry>
        </mxCell>
      </root>
    </mxGraphModel>
  </diagram>
</mxfile>
